<svg width="71" height="70" fill="none" xmlns="http://www.w3.org/2000/svg"><path d="M35.5 61.696c6.447.038 13.297 5.917 18.78 2.525 5.461-3.38 3.901-11.83 6.044-17.884 1.908-5.39 6.906-10.129 5.86-15.749-1.045-5.605-7.187-8.412-11.129-12.533-3.714-3.882-6.52-8.633-11.358-10.973-5.35-2.588-11.512-4.465-17.234-2.858-5.74 1.613-10.052 6.423-13.287 11.432C10.208 20.252 10 25.81 9.045 31.196c-.991 5.587-2.885 11.083-1.57 16.602 1.478 6.197 3.682 13.37 9.389 16.2 5.723 2.839 12.247-2.34 18.636-2.302Z" fill="#CF7EEC"/><path d="m36.708 23.413 6.078-.08c.799-.01 1.843.52 2.308 1.179l3.508 4.962c.468.653 1.039.566 1.28-.208l1.81-5.8c.232-.774 1.056-1.595 1.824-1.833l5.8-1.802c.774-.236.864-.811.208-1.277l-4.964-3.512c-.659-.466-1.19-1.5-1.172-2.303l.073-6.079c.01-.798-.506-1.071-1.154-.586l-4.87 3.635c-.64.481-1.79.661-2.555.409L39.129 8.16c-.764-.255-1.18.155-.924.914l1.96 5.755c.25.756.073 1.91-.4 2.558l-3.643 4.867c-.485.648-.215 1.164.586 1.159ZM64.22 55.992l.1-.102L15.132 6.71l-.055.053c-.008-.003-.008-.01-.015-.013-.813-.823-3.31.336-5.557 2.581-2.243 2.25-3.402 4.737-2.584 5.56.005.008.015.008.018.01l-.058.06L56.065 64.15l.097-.106c.977.516 3.262-.613 5.347-2.703 2.098-2.093 3.222-4.376 2.712-5.348ZM20.895 20.727c-1.189 1.19-2.443 2.06-3.485 2.51l-7.274-7.317c1.036-.453 2.275-1.321 3.457-2.498 1.174-1.18 2.032-2.406 2.49-3.437l7.293 7.335c-.456 1.029-1.32 2.243-2.48 3.407Z" fill="#010002"/></svg>