<svg width="71" height="70" fill="none" xmlns="http://www.w3.org/2000/svg"><g clip-path="url('#clip0_1_121')"><path d="M35.5 61.981c4.62.325 7.38-5.274 10.626-8.575 2.542-2.584 3.812-5.998 6.3-8.634C55.864 41.13 63.522 40.008 63.5 35c-.022-5.02-8.218-5.656-11.16-9.722-2.505-3.46-1.48-8.695-4.416-11.798-3.215-3.398-7.858-4.976-12.424-5.997-5.332-1.192-11.648-3.54-16.108-.383-4.545 3.216-2.232 10.895-5.306 15.537C10.703 27.744 1.736 28.929.913 35c-.79 5.821 4.685 11.146 9.533 14.465 4.326 2.961 10.566.162 15.256 2.505 4.25 2.123 5.06 9.678 9.798 10.011Z" fill="#52D4FF"/><path d="M25.778 15.556v38.888M47.653 35v19.444m-26.736 0h9.722m12.153 0h9.722M37.93 22.847v-7.292H13.626v7.292m43.75 17.014V35H37.931v4.861" stroke="#000" stroke-width="6.917" stroke-linecap="round" stroke-linejoin="round"/></g><defs><clipPath id="clip0_1_121"><path fill="#fff" transform="translate(.5)" d="M0 0h70v70H0z"/></clipPath></defs></svg>