<svg width="71" height="87" fill="none" xmlns="http://www.w3.org/2000/svg"><rect x=".513" y=".5" width="69.974" height="86" rx="10" fill="#000"/><path d="M21.764 35.675h-4.792c-.912 0-1.459.593-1.459 1.482v12.388c0 1.073.706 1.78 1.687 1.78.959 0 1.665-.707 1.665-1.78v-3.763c0-.092.047-.137.138-.137h2.761c3.375 0 5.407-2.054 5.407-4.974 0-2.966-2.008-4.996-5.407-4.996Zm-.206 7.072h-2.555c-.091 0-.138-.046-.138-.137V38.71c0-.092.047-.138.138-.138h2.555c1.414 0 2.258.845 2.258 2.1 0 1.255-.844 2.075-2.258 2.075ZM35.303 35.743H31.63c-.913 0-1.46.593-1.46 1.482v12.572c0 .89.547 1.46 1.46 1.46h3.673c3.307 0 5.362-1.05 6.183-3.582.295-.89.457-1.962.457-4.175s-.162-3.285-.457-4.175c-.821-2.532-2.876-3.582-6.183-3.582Zm2.967 10.769c-.39 1.231-1.506 1.757-3.059 1.757h-1.55c-.092 0-.139-.046-.139-.137v-9.263c0-.092.047-.138.139-.138h1.55c1.553 0 2.67.526 3.059 1.757.16.526.272 1.438.272 3.012s-.113 2.486-.272 3.012ZM53.931 35.675h-7.527c-.912 0-1.461.593-1.461 1.482v12.388c0 1.073.709 1.78 1.689 1.78.957 0 1.665-.707 1.665-1.78V45.12c0-.09.045-.136.136-.136h4.382c.98 0 1.55-.593 1.55-1.438 0-.844-.57-1.437-1.55-1.437h-4.382c-.091 0-.136-.045-.136-.137V38.71c0-.092.045-.138.136-.138h5.498c.936 0 1.553-.615 1.553-1.436 0-.845-.617-1.46-1.553-1.46Z" fill="#fff"/></svg>