<svg width="71" height="71" fill="none" xmlns="http://www.w3.org/2000/svg"><path fill-rule="evenodd" clip-rule="evenodd" d="M29.667 3.417c-.774 0-1.516.307-2.063.854l-17.5 17.5a2.917 2.917 0 0 0-.854 2.062v35a8.75 8.75 0 0 0 8.75 8.75h14.583a2.917 2.917 0 1 0 0-5.833H18a2.917 2.917 0 0 1-2.917-2.917V26.75h14.584a2.917 2.917 0 0 0 2.916-2.917V9.25H53a2.917 2.917 0 0 1 2.917 2.917V26.75a2.917 2.917 0 1 0 5.833 0V12.167A8.75 8.75 0 0 0 53 3.417H29.667Zm-2.917 17.5h-7.542l7.542-7.542v7.542ZM44.25 35.5a2.917 2.917 0 0 0-2.917 2.917v20.416a2.917 2.917 0 1 0 5.834 0V53h8.75a8.75 8.75 0 0 0 8.75-8.75 8.75 8.75 0 0 0-8.75-8.75H44.25Zm11.667 11.667h-8.75v-5.834h8.75a2.917 2.917 0 0 1 0 5.834Z" fill="#000"/></svg>